<?xml version="1.0" standalone="no"?>
<!DOCTYPE svg PUBLIC "-//W3C//DTD SVG 20010904//EN"
 "http://www.w3.org/TR/2001/REC-SVG-20010904/DTD/svg10.dtd">
<svg version="1.0" xmlns="http://www.w3.org/2000/svg"
 width="200.000000pt" height="200.000000pt" viewBox="0 0 200.000000 200.000000"
 preserveAspectRatio="xMidYMid meet">
<metadata>
Created by potrace 1.11, written by Peter Selinger 2001-2013
</metadata>
<g transform="translate(0.000000,200.000000) scale(0.100000,-0.100000)"
fill="#000000" stroke="none">
<path d="M110 1991 c0 -24 21 -61 34 -61 14 0 22 -33 28 -120 2 -27 7 -35 22
-35 11 0 21 -6 23 -12 7 -20 -26 -27 -53 -12 -25 13 -26 25 -8 73 4 12 0 16
-15 16 -17 0 -21 6 -21 34 0 44 -9 66 -26 66 -8 0 -14 -10 -14 -25 0 -30 -25
-34 -40 -5 -6 11 -17 20 -25 20 -20 0 -20 -46 0 -54 17 -6 21 -36 5 -36 -6 0
-8 -15 -4 -40 4 -27 3 -40 -5 -40 -16 0 -15 -384 2 -412 9 -16 9 -22 0 -25
-10 -4 -13 -146 -13 -664 l0 -659 110 0 c106 0 110 1 107 21 -1 12 4 24 10 26
8 3 13 -5 13 -21 l0 -26 300 0 300 0 -36 71 c-19 40 -33 80 -31 90 3 11 2 21
-3 24 -4 3 -11 16 -14 29 -3 13 -24 56 -47 95 -40 70 -41 74 -34 136 5 49 10
63 21 58 12 -4 19 7 15 29 -2 16 19 59 27 54 5 -3 6 9 4 27 -5 29 0 26 55 -43
54 -68 95 -110 164 -165 53 -42 89 -65 103 -65 17 0 94 57 150 110 52 51 115
86 121 68 20 -56 23 -107 10 -179 -18 -100 -36 -159 -48 -159 -17 0 -71 38
-107 76 -45 47 -98 74 -133 67 -15 -3 -30 -9 -33 -14 -3 -5 -17 -9 -32 -9 -16
0 -43 -12 -61 -28 l-34 -28 26 -16 c31 -21 51 -98 45 -174 l-5 -54 87 0 88 0
-2 42 c-1 28 3 42 11 41 6 -2 28 4 48 13 65 27 91 -2 65 -70 l-10 -26 70 0
c38 0 71 4 75 9 3 6 18 6 38 0 17 -5 152 -9 299 -9 l268 0 0 85 0 84 -38 -13
c-60 -21 -115 -52 -136 -75 -11 -12 -23 -21 -28 -21 -4 0 -8 48 -8 106 0 58
-5 114 -10 125 -12 22 2 26 22 5 22 -21 57 -29 73 -16 12 10 15 9 15 -9 0 -11
5 -21 12 -21 6 0 19 -6 27 -14 9 -7 29 -16 44 -20 l28 -7 -3 123 -3 122 -32 8
c-25 6 -30 12 -26 28 3 11 0 20 -6 20 -6 0 -11 7 -11 15 0 9 10 15 26 15 20 0
25 4 20 16 -3 9 -6 18 -6 20 0 2 -6 4 -14 4 -20 0 -29 16 -21 40 4 13 15 20
31 20 26 0 29 9 15 58 -9 28 -7 32 10 32 16 0 19 7 19 41 0 38 -2 42 -41 57
l-42 16 29 8 c17 5 30 4 32 -2 2 -6 8 -10 13 -10 15 0 11 187 -3 193 -10 4
-10 6 0 6 9 1 12 104 12 481 l0 480 -253 0 c-183 0 -256 -3 -265 -12 -9 -9
-12 -9 -12 0 0 10 -25 13 -95 11 -52 -1 -95 -5 -95 -10 0 -5 -7 -9 -15 -9 -8
0 -15 5 -15 10 0 6 -18 10 -41 10 -46 0 -51 -23 -6 -28 37 -5 34 -20 -5 -24
-17 -2 -33 -9 -36 -16 -3 -10 4 -13 26 -10 17 2 30 -1 29 -7 -1 -5 -13 -10
-27 -10 -17 -1 -26 -7 -28 -20 -11 -70 -34 -22 -32 68 1 37 -2 47 -15 47 -12
0 -13 -4 -6 -18 7 -14 5 -21 -9 -30 -15 -9 -18 -19 -14 -42 5 -23 1 -35 -17
-55 -13 -13 -30 -25 -38 -25 -11 0 -9 -4 5 -15 10 -8 15 -14 9 -14 -5 0 -18 5
-27 13 -12 9 -14 16 -7 23 6 6 8 16 5 22 -9 14 -56 14 -56 0 0 -7 -10 -5 -25
5 -13 9 -31 16 -40 16 -8 0 -15 9 -15 19 0 11 -6 21 -12 24 -7 2 -9 8 -5 13 4
5 12 2 16 -5 7 -11 13 -10 34 4 24 16 26 15 36 -4 6 -11 21 -23 33 -27 13 -4
26 -11 29 -16 7 -11 59 0 59 13 0 5 -13 15 -30 24 -16 9 -30 23 -30 31 0 13
-11 15 -65 12 -54 -2 -65 0 -69 15 -6 23 -81 24 -94 1 -6 -10 -21 -16 -38 -16
-16 0 -58 2 -94 2 -73 2 -97 11 -60 21 14 4 -75 7 -197 8 -167 1 -223 -2 -223
-11 0 -9 -3 -9 -12 0 -14 14 -48 16 -48 3z m1210 -30 c0 -10 -6 -23 -13 -29
-10 -9 -12 -4 -9 23 4 35 22 39 22 6z m-485 -1 c0 -7 -6 -15 -12 -17 -8 -3
-13 4 -13 17 0 13 5 20 13 18 6 -3 12 -11 12 -18z m-385 6 c0 -3 -4 -8 -10
-11 -5 -3 -10 -1 -10 4 0 6 5 11 10 11 6 0 10 -2 10 -4z m-198 -68 c-12 -12
-27 -18 -36 -15 -20 8 -21 37 -1 37 8 0 15 5 15 10 0 7 7 7 21 -1 l21 -11 -20
-20z m548 32 c0 -5 -5 -10 -11 -10 -5 0 -7 5 -4 10 3 6 8 10 11 10 2 0 4 -4 4
-10z m590 -25 c0 -21 -17 -27 -24 -9 -10 25 -7 34 9 28 8 -4 15 -12 15 -19z
m185 15 c-3 -5 -16 -10 -28 -10 -18 0 -19 2 -7 10 20 13 43 13 35 0z m-1190
-9 c3 -5 1 -12 -5 -16 -5 -3 -10 1 -10 9 0 18 6 21 15 7z m45 5 c0 -2 -7 -6
-15 -10 -8 -3 -15 -1 -15 4 0 6 7 10 15 10 8 0 15 -2 15 -4z m210 0 c0 -11
-19 -15 -25 -6 -3 5 1 10 9 10 9 0 16 -2 16 -4z m666 -51 c19 -14 19 -14 -2
-15 -12 0 -27 7 -34 15 -17 20 9 21 36 0z m-953 -9 c7 -18 -42 -41 -57 -26 -7
7 -5 10 6 10 9 0 18 7 22 15 7 19 22 19 29 1z m852 -16 c3 -5 2 -10 -4 -10 -5
0 -13 5 -16 10 -3 6 -2 10 4 10 5 0 13 -4 16 -10z m155 0 c0 -5 -4 -10 -9 -10
-6 0 -13 5 -16 10 -3 6 1 10 9 10 9 0 16 -4 16 -10z m-1110 -10 c0 -5 -9 -10
-20 -10 -11 0 -20 5 -20 10 0 6 9 10 20 10 11 0 20 -4 20 -10z m467 4 c-3 -3
-12 -4 -19 -1 -8 3 -5 6 6 6 11 1 17 -2 13 -5z m254 -17 c-13 -13 -26 -3 -16
12 3 6 11 8 17 5 6 -4 6 -10 -1 -17z m829 19 c0 -11 -19 -15 -25 -6 -3 5 1 10
9 10 9 0 16 -2 16 -4z m-1675 -73 c-2 -7 -15 -13 -27 -12 -13 0 -17 3 -10 6 6
2 12 17 12 32 0 15 3 31 7 35 9 9 25 -44 18 -61z m988 60 c-7 -2 -21 -2 -30 0
-10 3 -4 5 12 5 17 0 24 -2 18 -5z m-547 -15 c4 -6 3 -8 -4 -4 -6 3 -13 2 -17
-4 -7 -12 -25 -4 -25 11 0 13 37 11 46 -3z m444 -18 c0 -5 -4 -10 -10 -10 -5
0 -10 5 -10 10 0 6 5 10 10 10 6 0 10 -4 10 -10z m87 -6 c-3 -3 -12 -4 -19 -1
-8 3 -5 6 6 6 11 1 17 -2 13 -5z m198 -14 c-3 -5 -11 -10 -16 -10 -6 0 -7 5
-4 10 3 6 11 10 16 10 6 0 7 -4 4 -10z m-931 -6 c19 -7 23 -68 4 -62 -7 3 -14
14 -16 26 -2 13 -11 22 -20 22 -15 0 -15 2 -2 10 18 12 15 11 34 4z m131 -4
c3 -5 1 -10 -4 -10 -6 0 -11 5 -11 10 0 6 2 10 4 10 3 0 8 -4 11 -10z m312
-36 c-3 -3 -12 -4 -19 -1 -8 3 -5 6 6 6 11 1 17 -2 13 -5z m-570 -41 c-3 -10
-5 -4 -5 12 0 17 2 24 5 18 2 -7 2 -21 0 -30z m409 16 c3 -6 1 -15 -5 -20 -6
-5 -9 -6 -6 -3 3 4 0 13 -6 21 -8 9 -8 13 -1 13 6 0 14 -5 18 -11z m-566 -24
c0 -8 5 -15 12 -15 6 0 9 -2 7 -5 -3 -2 -15 -2 -27 2 -25 6 -30 33 -7 33 8 0
15 -7 15 -15z m304 -44 c-9 -10 -26 18 -18 30 5 9 9 8 14 -7 4 -10 6 -21 4
-23z m-223 -41 l-7 -35 -6 35 c-6 38 -1 57 12 43 5 -4 5 -24 1 -43z m414 40
c3 -5 2 -10 -4 -10 -5 0 -13 5 -16 10 -3 6 -2 10 4 10 5 0 13 -4 16 -10z m-7
-32 c17 -2 15 -28 -3 -28 -7 0 -18 6 -22 14 -4 8 -17 16 -28 20 -11 3 -6 3 10
0 17 -3 36 -5 43 -6z m1117 -18 c3 -5 1 -10 -4 -10 -6 0 -11 5 -11 10 0 6 2
10 4 10 3 0 8 -4 11 -10z m-1605 -20 c0 -5 -7 -10 -16 -10 -8 0 -12 5 -9 10 3
6 10 10 16 10 5 0 9 -4 9 -10z m1653 -35 c-7 -21 -13 -19 -13 6 0 11 4 18 10
14 5 -3 7 -12 3 -20z m21 -51 c21 -8 20 -17 -1 -30 -15 -9 -18 -7 -19 12 -2
27 -2 26 20 18z m-1667 -96 c-2 -13 -4 -3 -4 22 0 25 2 35 4 23 2 -13 2 -33 0
-45z m190 10 c-3 -8 -6 -5 -6 6 -1 11 2 17 5 13 3 -3 4 -12 1 -19z m-247 -19
c0 -5 -4 -9 -10 -9 -5 0 -10 7 -10 16 0 8 5 12 10 9 6 -3 10 -10 10 -16z m597
-5 c-3 -3 -12 -4 -19 -1 -8 3 -5 6 6 6 11 1 17 -2 13 -5z m69 -35 c-13 -19
-16 -20 -16 -6 0 9 5 17 11 17 6 0 8 7 4 18 -5 13 -3 14 6 5 9 -9 8 -17 -5
-34z m1149 -28 c-8 -13 -35 -15 -35 -2 0 5 8 11 18 13 21 5 26 2 17 -11z m-55
-21 c0 -5 -2 -10 -4 -10 -3 0 -8 5 -11 10 -3 6 -1 10 4 10 6 0 11 -4 11 -10z
m-1113 -92 c-3 -8 -6 -5 -6 6 -1 11 2 17 5 13 3 -3 4 -12 1 -19z m1020 -39 c1
-16 -2 -29 -7 -29 -6 0 -10 6 -10 13 0 7 -7 4 -15 -7 -8 -11 -15 -15 -15 -9 0
7 5 15 11 18 6 4 7 19 4 37 -6 27 -5 28 12 18 10 -7 19 -25 20 -41z m-1447
-14 c0 -8 -4 -15 -10 -15 -5 0 -7 7 -4 15 4 8 8 15 10 15 2 0 4 -7 4 -15z
m457 -7 c-3 -8 -6 -5 -6 6 -1 11 2 17 5 13 3 -3 4 -12 1 -19z m1157 -4 c9 -3
13 -10 10 -15 -8 -14 -21 -11 -28 6 -6 17 -4 18 18 9z m-104 -79 c0 -3 -8 -5
-19 -5 -13 0 -20 9 -23 31 l-5 30 24 -25 c12 -14 23 -28 23 -31z m-133 23 c-3
-8 -6 -5 -6 6 -1 11 2 17 5 13 3 -3 4 -12 1 -19z m-920 -20 c-3 -7 -5 -2 -5
12 0 14 2 19 5 13 2 -7 2 -19 0 -25z m1256 25 c-7 -2 -21 -2 -30 0 -10 3 -4 5
12 5 17 0 24 -2 18 -5z m-283 -80 c0 -64 -1 -67 -14 -41 -16 30 -16 77 -1 95
5 7 11 12 13 13 1 0 2 -30 2 -67z m-1032 32 c1 -14 -2 -25 -8 -25 -16 0 -22
21 -10 35 16 19 15 19 18 -10z m976 4 c-8 -14 -24 -10 -24 6 0 9 6 12 15 9 8
-4 12 -10 9 -15z m242 -15 c6 -8 16 -14 21 -14 5 0 17 -8 26 -18 15 -17 15
-19 -13 -36 -20 -11 -35 -14 -46 -8 -10 6 -29 4 -53 -4 -20 -7 -53 -13 -75
-14 -31 0 -36 3 -27 13 6 8 8 17 4 20 -3 4 4 7 16 7 12 0 20 -4 17 -9 -9 -13
32 -21 43 -7 6 7 4 18 -5 30 -23 32 -17 49 9 24 12 -13 21 -25 20 -28 -1 -3
22 -5 50 -6 29 0 42 1 30 4 -13 2 -23 8 -23 13 0 5 -6 9 -13 9 -7 0 -23 11
-35 25 l-21 24 32 -6 c18 -3 37 -12 43 -19z m-1184 -16 c-7 -7 -12 -8 -12 -2
0 14 12 26 19 19 2 -3 -1 -11 -7 -17z m54 -15 c-7 -7 -26 7 -26 19 0 6 6 6 15
-2 9 -7 13 -15 11 -17z m-26 -22 c0 -5 3 -16 6 -25 3 -9 2 -16 -4 -16 -5 0
-12 11 -14 25 -3 14 -1 25 3 25 5 0 9 -4 9 -9z m1265 0 c7 -12 -12 -24 -25
-16 -11 7 -4 25 10 25 5 0 11 -4 15 -9z m-1225 -22 c0 -5 -4 -9 -10 -9 -5 0
-10 7 -10 16 0 8 5 12 10 9 6 -3 10 -10 10 -16z m870 1 c0 -5 -4 -10 -10 -10
-5 0 -10 5 -10 10 0 6 5 10 10 10 6 0 10 -4 10 -10z m-890 -61 c0 -6 -4 -7
-10 -4 -5 3 -10 11 -10 16 0 6 5 7 10 4 6 -3 10 -11 10 -16z m889 2 c11 -7 9
-11 -8 -20 -18 -10 -21 -9 -21 9 0 22 7 25 29 11z m266 -1 c-3 -5 -1 -10 4
-10 24 0 9 -18 -18 -22 -22 -3 -31 0 -34 13 -3 11 2 20 12 22 30 8 42 7 36 -3z
m-190 -63 c15 -8 17 -11 5 -15 -7 -3 -16 0 -18 7 -2 6 -21 11 -43 11 -21 0
-39 5 -39 10 0 12 63 3 95 -13z m71 -98 c-2 -39 -7 -73 -10 -76 -11 -11 -36
31 -32 55 4 27 1 27 -26 3 -11 -11 -26 -17 -34 -14 -19 7 -17 23 4 29 9 3 24
8 32 12 8 3 19 4 24 3 22 -5 37 9 28 26 -11 21 -5 46 9 38 5 -3 7 -38 5 -76z
m137 67 c18 -8 43 -17 57 -19 14 -3 4 -3 -22 -1 -38 2 -48 0 -48 -13 0 -11 -6
-14 -22 -9 -13 3 -35 6 -50 6 -23 0 -27 4 -26 25 2 22 7 25 41 25 22 0 53 -7
70 -14z m-203 -6 c0 -5 -5 -10 -11 -10 -5 0 -7 5 -4 10 3 6 8 10 11 10 2 0 4
-4 4 -10z m-100 -93 c0 -7 -12 1 -25 16 -14 15 -25 33 -25 40 0 7 12 -1 25
-16 14 -15 25 -33 25 -40z m-70 21 c0 -4 7 -8 15 -8 8 0 15 -4 15 -10 0 -13
-3 -13 -35 2 -28 13 -33 25 -10 25 8 0 15 -4 15 -9z m368 0 c16 -16 15 -43 0
-56 -10 -7 -21 -4 -41 14 -23 20 -26 26 -15 39 16 18 40 19 56 3z m-1162 -45
c-11 -11 -17 4 -9 23 7 18 8 18 11 1 2 -10 1 -21 -2 -24z m754 7 c0 -5 -5 -10
-11 -10 -5 0 -7 5 -4 10 3 6 8 10 11 10 2 0 4 -4 4 -10z m-783 -52 c-3 -8 -6
-5 -6 6 -1 11 2 17 5 13 3 -3 4 -12 1 -19z m1115 6 c-22 -15 -42 -12 -42 7 0
5 15 9 32 9 32 0 32 0 10 -16z m-338 -16 c-3 -5 -13 -7 -20 -4 -9 3 -27 -8
-45 -29 -17 -19 -35 -35 -41 -35 -5 0 7 16 27 37 19 20 35 39 35 43 0 4 11 5
25 2 14 -2 22 -9 19 -14z m398 11 c15 -8 18 -17 14 -35 -4 -14 -2 -24 4 -24 5
0 10 -8 10 -17 -1 -17 -1 -17 -14 0 -8 10 -20 15 -30 11 -13 -5 -16 1 -16 35
0 45 2 46 32 30z m-122 -28 c0 -11 -26 -22 -34 -14 -12 12 -5 23 14 23 11 0
20 -4 20 -9z m78 -20 c-1 -24 -6 -30 -31 -35 -17 -4 -35 -2 -41 4 -7 7 -3 10
11 10 14 0 23 8 27 25 9 36 35 32 34 -4z m-378 -6 c0 -8 -4 -15 -10 -15 -5 0
-10 7 -10 15 0 8 5 15 10 15 6 0 10 -7 10 -15z m200 -9 c0 -11 -19 -15 -25 -6
-3 5 1 10 9 10 9 0 16 -2 16 -4z m90 -6 c0 -5 -7 -7 -15 -4 -8 4 -15 8 -15 10
0 2 7 4 15 4 8 0 15 -4 15 -10z m80 -34 c0 -11 -19 -15 -25 -6 -3 5 1 10 9 10
9 0 16 -2 16 -4z m-400 -16 c0 -5 -4 -10 -10 -10 -5 0 -10 5 -10 10 0 6 5 10
10 10 6 0 10 -4 10 -10z m-786 -54 l4 -48 -25 38 c-25 35 -25 38 -8 50 10 8
20 13 21 11 2 -2 5 -25 8 -51z m577 -256 c29 -16 23 -30 -21 -47 -21 -9 -41
-21 -43 -27 -2 -6 -2 0 0 13 4 23 31 71 40 71 2 0 13 -5 24 -10z"/>
<path d="M1810 780 c0 -5 14 -10 30 -10 17 0 30 5 30 10 0 6 -13 10 -30 10
-16 0 -30 -4 -30 -10z"/>
<path d="M1985 627 c-4 -10 -5 -21 -1 -24 10 -10 18 4 13 24 -4 17 -4 17 -12
0z"/>
<path d="M1970 486 c0 -2 7 -7 16 -10 8 -3 12 -2 9 4 -6 10 -25 14 -25 6z"/>
</g>
</svg>
